<svg width="38" height="38" viewBox="0 0 38 38" fill="none" xmlns="http://www.w3.org/2000/svg">
<path d="M10.7483 0.266846C4.96869 0.266846 0.266602 4.9633 0.266602 10.736V27.4866C0.266602 33.2593 4.96869 37.9557 10.7483 37.9557H27.519C33.2986 37.9557 38.0007 33.2593 38.0007 27.4866V10.736C38.0007 4.9633 33.2986 0.266846 27.519 0.266846H10.7483ZM10.7483 4.4545H27.519C30.9863 4.4545 33.808 7.27279 33.808 10.736V27.4866C33.808 30.9498 30.9863 33.7681 27.519 33.7681H10.7483C7.28095 33.7681 4.45928 30.9498 4.45928 27.4866V10.736C4.45928 7.27279 7.28095 4.4545 10.7483 4.4545ZM29.6153 6.54833C29.0593 6.54833 28.5261 6.76893 28.133 7.1616C27.7398 7.55426 27.519 8.08684 27.519 8.64215C27.519 9.19747 27.7398 9.73004 28.133 10.1227C28.5261 10.5154 29.0593 10.736 29.6153 10.736C30.1713 10.736 30.7045 10.5154 31.0977 10.1227C31.4908 9.73004 31.7117 9.19747 31.7117 8.64215C31.7117 8.08684 31.4908 7.55426 31.0977 7.1616C30.7045 6.76893 30.1713 6.54833 29.6153 6.54833ZM19.1336 8.64215C13.354 8.64215 8.65195 13.3386 8.65195 19.1113C8.65195 24.884 13.354 29.5804 19.1336 29.5804C24.9132 29.5804 29.6153 24.884 29.6153 19.1113C29.6153 13.3386 24.9132 8.64215 19.1336 8.64215ZM19.1336 12.8298C22.601 12.8298 25.4226 15.6481 25.4226 19.1113C25.4226 22.5745 22.601 25.3928 19.1336 25.3928C15.6663 25.3928 12.8446 22.5745 12.8446 19.1113C12.8446 15.6481 15.6663 12.8298 19.1336 12.8298Z" fill="white"/>
</svg>
