<svg width="195" height="80" viewBox="0 0 195 80" fill="none" xmlns="http://www.w3.org/2000/svg">
<path d="M28.8472 45.16C27.6739 45.16 26.6659 44.9253 25.8232 44.456C24.9912 43.976 24.3512 43.304 23.9032 42.44C23.4552 41.5653 23.2312 40.536 23.2312 39.352C23.2312 38.4667 23.3592 37.672 23.6152 36.968C23.8712 36.2533 24.2392 35.6453 24.7192 35.144C25.1992 34.632 25.7859 34.2427 26.4792 33.976C27.1832 33.6987 27.9725 33.56 28.8472 33.56C29.4339 33.56 30.0099 33.6347 30.5752 33.784C31.1405 33.9333 31.6365 34.1467 32.0632 34.424C32.2872 34.5627 32.4365 34.7333 32.5112 34.936C32.5859 35.128 32.6019 35.32 32.5592 35.512C32.5165 35.6933 32.4259 35.848 32.2872 35.976C32.1592 36.104 31.9939 36.1787 31.7912 36.2C31.5992 36.2107 31.3859 36.1413 31.1512 35.992C30.8205 35.7787 30.4632 35.624 30.0792 35.528C29.6952 35.432 29.3059 35.384 28.9112 35.384C28.1539 35.384 27.5139 35.5387 26.9912 35.848C26.4685 36.1573 26.0739 36.6053 25.8072 37.192C25.5405 37.7787 25.4072 38.4987 25.4072 39.352C25.4072 40.1947 25.5405 40.9147 25.8072 41.512C26.0739 42.1093 26.4685 42.5627 26.9912 42.872C27.5139 43.1813 28.1539 43.336 28.9112 43.336C29.3165 43.336 29.7165 43.288 30.1112 43.192C30.5059 43.0853 30.8792 42.9253 31.2312 42.712C31.4659 42.5733 31.6739 42.5147 31.8552 42.536C32.0472 42.5467 32.2072 42.6107 32.3352 42.728C32.4632 42.8453 32.5485 42.9947 32.5912 43.176C32.6339 43.3467 32.6232 43.528 32.5592 43.72C32.4952 43.9013 32.3672 44.0613 32.1752 44.2C31.7485 44.5093 31.2365 44.7493 30.6392 44.92C30.0525 45.08 29.4552 45.16 28.8472 45.16ZM35.2742 45.128C34.9542 45.128 34.7089 45.0427 34.5382 44.872C34.3675 44.6907 34.2822 44.4347 34.2822 44.104V34.6C34.2822 34.2693 34.3675 34.0187 34.5382 33.848C34.7089 33.6773 34.9542 33.592 35.2742 33.592C35.5942 33.592 35.8395 33.6773 36.0102 33.848C36.1915 34.0187 36.2822 34.2693 36.2822 34.6V38.744H36.0582C36.2929 38.1787 36.6555 37.752 37.1462 37.464C37.6475 37.1653 38.2129 37.016 38.8422 37.016C39.4715 37.016 39.9889 37.1333 40.3942 37.368C40.7995 37.6027 41.1035 37.96 41.3062 38.44C41.5089 38.9093 41.6102 39.5067 41.6102 40.232V44.104C41.6102 44.4347 41.5249 44.6907 41.3542 44.872C41.1835 45.0427 40.9382 45.128 40.6182 45.128C40.2982 45.128 40.0475 45.0427 39.8662 44.872C39.6955 44.6907 39.6102 44.4347 39.6102 44.104V40.328C39.6102 39.72 39.4929 39.2773 39.2582 39C39.0342 38.7227 38.6822 38.584 38.2022 38.584C37.6155 38.584 37.1462 38.7707 36.7942 39.144C36.4529 39.5067 36.2822 39.992 36.2822 40.6V44.104C36.2822 44.7867 35.9462 45.128 35.2742 45.128ZM46.2176 45.16C45.6522 45.16 45.1456 45.0533 44.6976 44.84C44.2602 44.616 43.9136 44.3173 43.6576 43.944C43.4122 43.5707 43.2896 43.1493 43.2896 42.68C43.2896 42.104 43.4389 41.6507 43.7376 41.32C44.0362 40.9787 44.5216 40.7333 45.1936 40.584C45.8656 40.4347 46.7669 40.36 47.8976 40.36H48.6976V41.512H47.9136C47.2522 41.512 46.7242 41.544 46.3296 41.608C45.9349 41.672 45.6522 41.784 45.4816 41.944C45.3216 42.0933 45.2416 42.3067 45.2416 42.584C45.2416 42.936 45.3642 43.224 45.6096 43.448C45.8549 43.672 46.1962 43.784 46.6336 43.784C46.9856 43.784 47.2949 43.704 47.5616 43.544C47.8389 43.3733 48.0576 43.144 48.2176 42.856C48.3776 42.568 48.4576 42.2373 48.4576 41.864V40.024C48.4576 39.4907 48.3402 39.1067 48.1056 38.872C47.8709 38.6373 47.4762 38.52 46.9216 38.52C46.6122 38.52 46.2762 38.5573 45.9136 38.632C45.5616 38.7067 45.1882 38.8347 44.7936 39.016C44.5909 39.112 44.4096 39.1387 44.2496 39.096C44.1002 39.0533 43.9829 38.968 43.8976 38.84C43.8122 38.7013 43.7696 38.552 43.7696 38.392C43.7696 38.232 43.8122 38.0773 43.8976 37.928C43.9829 37.768 44.1269 37.6507 44.3296 37.576C44.8202 37.3733 45.2896 37.2293 45.7376 37.144C46.1962 37.0587 46.6122 37.016 46.9856 37.016C47.7536 37.016 48.3829 37.1333 48.8736 37.368C49.3749 37.6027 49.7482 37.96 49.9936 38.44C50.2389 38.9093 50.3616 39.5173 50.3616 40.264V44.104C50.3616 44.4347 50.2816 44.6907 50.1216 44.872C49.9616 45.0427 49.7322 45.128 49.4336 45.128C49.1349 45.128 48.9002 45.0427 48.7296 44.872C48.5696 44.6907 48.4896 44.4347 48.4896 44.104V43.336H48.6176C48.5429 43.7093 48.3936 44.0347 48.1696 44.312C47.9562 44.5787 47.6842 44.7867 47.3536 44.936C47.0229 45.0853 46.6442 45.16 46.2176 45.16ZM53.4156 45.128C53.0956 45.128 52.8502 45.0427 52.6796 44.872C52.5089 44.6907 52.4236 44.4347 52.4236 44.104V38.056C52.4236 37.7253 52.5089 37.4747 52.6796 37.304C52.8502 37.1333 53.0902 37.048 53.3996 37.048C53.7089 37.048 53.9489 37.1333 54.1196 37.304C54.2902 37.4747 54.3756 37.7253 54.3756 38.056V39.224L54.1996 38.744C54.4129 38.2107 54.7436 37.7893 55.1916 37.48C55.6396 37.1707 56.1729 37.016 56.7916 37.016C57.4209 37.016 57.9382 37.1653 58.3436 37.464C58.7489 37.7627 59.0316 38.2213 59.1916 38.84H58.9676C59.1809 38.2747 59.5329 37.832 60.0236 37.512C60.5142 37.1813 61.0796 37.016 61.7196 37.016C62.3169 37.016 62.8076 37.1333 63.1916 37.368C63.5862 37.6027 63.8796 37.96 64.0716 38.44C64.2636 38.9093 64.3596 39.5067 64.3596 40.232V44.104C64.3596 44.4347 64.2689 44.6907 64.0876 44.872C63.9169 45.0427 63.6716 45.128 63.3516 45.128C63.0316 45.128 62.7862 45.0427 62.6156 44.872C62.4449 44.6907 62.3596 44.4347 62.3596 44.104V40.312C62.3596 39.7147 62.2582 39.2773 62.0556 39C61.8636 38.7227 61.5329 38.584 61.0636 38.584C60.5409 38.584 60.1302 38.7707 59.8316 39.144C59.5329 39.5067 59.3836 40.0133 59.3836 40.664V44.104C59.3836 44.4347 59.2982 44.6907 59.1276 44.872C58.9569 45.0427 58.7116 45.128 58.3916 45.128C58.0716 45.128 57.8209 45.0427 57.6396 44.872C57.4689 44.6907 57.3836 44.4347 57.3836 44.104V40.312C57.3836 39.7147 57.2822 39.2773 57.0796 39C56.8876 38.7227 56.5622 38.584 56.1036 38.584C55.5809 38.584 55.1702 38.7707 54.8716 39.144C54.5729 39.5067 54.4236 40.0133 54.4236 40.664V44.104C54.4236 44.7867 54.0876 45.128 53.4156 45.128ZM67.4148 48.008C67.0948 48.008 66.8495 47.9227 66.6788 47.752C66.5081 47.5813 66.4228 47.3307 66.4228 47V38.056C66.4228 37.7253 66.5081 37.4747 66.6788 37.304C66.8495 37.1333 67.0895 37.048 67.3988 37.048C67.7188 37.048 67.9641 37.1333 68.1348 37.304C68.3055 37.4747 68.3908 37.7253 68.3908 38.056V39.304L68.2148 38.824C68.3748 38.28 68.7001 37.8427 69.1908 37.512C69.6921 37.1813 70.2735 37.016 70.9348 37.016C71.6175 37.016 72.2148 37.1813 72.7268 37.512C73.2495 37.8427 73.6548 38.312 73.9428 38.92C74.2308 39.5173 74.3748 40.2373 74.3748 41.08C74.3748 41.912 74.2308 42.6373 73.9428 43.256C73.6548 43.864 73.2548 44.3333 72.7428 44.664C72.2308 44.9947 71.6281 45.16 70.9348 45.16C70.2841 45.16 69.7135 45 69.2228 44.68C68.7321 44.3493 68.4015 43.9227 68.2308 43.4H68.4228V47C68.4228 47.3307 68.3321 47.5813 68.1508 47.752C67.9801 47.9227 67.7348 48.008 67.4148 48.008ZM70.3748 43.64C70.7695 43.64 71.1161 43.544 71.4148 43.352C71.7135 43.16 71.9428 42.8773 72.1028 42.504C72.2735 42.12 72.3588 41.6453 72.3588 41.08C72.3588 40.2267 72.1775 39.592 71.8148 39.176C71.4521 38.7493 70.9721 38.536 70.3748 38.536C69.9801 38.536 69.6335 38.632 69.3348 38.824C69.0361 39.0053 68.8015 39.288 68.6308 39.672C68.4708 40.0453 68.3908 40.5147 68.3908 41.08C68.3908 41.9227 68.5721 42.5627 68.9348 43C69.2975 43.4267 69.7775 43.64 70.3748 43.64ZM77.7126 36.04C77.6059 36.1893 77.4779 36.2747 77.3286 36.296C77.1792 36.3173 77.0352 36.2907 76.8966 36.216C76.7579 36.1413 76.6566 36.0347 76.5926 35.896C76.5392 35.7573 76.5552 35.6027 76.6406 35.432L77.8566 33.048C77.9526 32.8453 78.0806 32.7173 78.2406 32.664C78.4006 32.6 78.5659 32.5893 78.7366 32.632C78.9072 32.6747 79.0512 32.7547 79.1686 32.872C79.2966 32.9893 79.3712 33.1333 79.3926 33.304C79.4246 33.464 79.3819 33.6293 79.2646 33.8L77.7126 36.04ZM84.9118 45.16C84.4531 45.16 83.9678 45.112 83.4558 45.016C82.9438 44.92 82.4851 44.7547 82.0798 44.52C81.9091 44.4133 81.7865 44.2907 81.7118 44.152C81.6478 44.0027 81.6211 43.8587 81.6318 43.72C81.6531 43.5707 81.7065 43.4427 81.7918 43.336C81.8878 43.2293 82.0051 43.16 82.1438 43.128C82.2931 43.096 82.4531 43.1227 82.6238 43.208C83.0505 43.4107 83.4505 43.5547 83.8238 43.64C84.1971 43.7147 84.5651 43.752 84.9278 43.752C85.4398 43.752 85.8185 43.6667 86.0638 43.496C86.3198 43.3147 86.4478 43.08 86.4478 42.792C86.4478 42.5467 86.3625 42.36 86.1918 42.232C86.0318 42.0933 85.7865 41.992 85.4558 41.928L83.8558 41.624C83.1945 41.496 82.6878 41.256 82.3358 40.904C81.9945 40.5413 81.8238 40.0773 81.8238 39.512C81.8238 39 81.9625 38.5573 82.2398 38.184C82.5278 37.8107 82.9225 37.5227 83.4238 37.32C83.9251 37.1173 84.5011 37.016 85.1518 37.016C85.6211 37.016 86.0585 37.0693 86.4638 37.176C86.8798 37.272 87.2798 37.4267 87.6638 37.64C87.8238 37.7253 87.9305 37.8373 87.9838 37.976C88.0478 38.1147 88.0638 38.2587 88.0318 38.408C87.9998 38.5467 87.9358 38.6747 87.8398 38.792C87.7438 38.8987 87.6211 38.968 87.4718 39C87.3331 39.0213 87.1731 38.9893 86.9918 38.904C86.6611 38.7333 86.3411 38.6107 86.0318 38.536C85.7331 38.4613 85.4451 38.424 85.1678 38.424C84.6451 38.424 84.2558 38.5147 83.9998 38.696C83.7545 38.8773 83.6318 39.1173 83.6318 39.416C83.6318 39.64 83.7065 39.8267 83.8558 39.976C84.0051 40.1253 84.2345 40.2267 84.5438 40.28L86.1438 40.584C86.8371 40.712 87.3598 40.9467 87.7118 41.288C88.0745 41.6293 88.2558 42.088 88.2558 42.664C88.2558 43.4427 87.9518 44.056 87.3438 44.504C86.7358 44.9413 85.9251 45.16 84.9118 45.16ZM95.1961 45.128C94.8761 45.128 94.6307 45.0427 94.4601 44.872C94.2894 44.6907 94.2041 44.4347 94.2041 44.104V34.6C94.2041 34.2693 94.2894 34.0187 94.4601 33.848C94.6307 33.6773 94.8761 33.592 95.1961 33.592C95.5161 33.592 95.7614 33.6773 95.9321 33.848C96.1134 34.0187 96.2041 34.2693 96.2041 34.6V38.744H95.9801C96.2147 38.1787 96.5774 37.752 97.0681 37.464C97.5694 37.1653 98.1347 37.016 98.7641 37.016C99.3934 37.016 99.9107 37.1333 100.316 37.368C100.721 37.6027 101.025 37.96 101.228 38.44C101.431 38.9093 101.532 39.5067 101.532 40.232V44.104C101.532 44.4347 101.447 44.6907 101.276 44.872C101.105 45.0427 100.86 45.128 100.54 45.128C100.22 45.128 99.9694 45.0427 99.7881 44.872C99.6174 44.6907 99.5321 44.4347 99.5321 44.104V40.328C99.5321 39.72 99.4147 39.2773 99.1801 39C98.9561 38.7227 98.6041 38.584 98.1241 38.584C97.5374 38.584 97.0681 38.7707 96.7161 39.144C96.3747 39.5067 96.2041 39.992 96.2041 40.6V44.104C96.2041 44.7867 95.8681 45.128 95.1961 45.128ZM106.395 45.16C105.745 45.16 105.206 45.0427 104.779 44.808C104.353 44.5627 104.033 44.2 103.819 43.72C103.617 43.24 103.515 42.6427 103.515 41.928V38.056C103.515 37.7147 103.601 37.464 103.771 37.304C103.942 37.1333 104.187 37.048 104.507 37.048C104.827 37.048 105.073 37.1333 105.243 37.304C105.425 37.464 105.515 37.7147 105.515 38.056V41.96C105.515 42.5147 105.627 42.9253 105.851 43.192C106.075 43.4587 106.433 43.592 106.923 43.592C107.457 43.592 107.894 43.4107 108.235 43.048C108.577 42.6747 108.747 42.184 108.747 41.576V38.056C108.747 37.7147 108.833 37.464 109.003 37.304C109.174 37.1333 109.419 37.048 109.739 37.048C110.059 37.048 110.305 37.1333 110.475 37.304C110.657 37.464 110.747 37.7147 110.747 38.056V44.104C110.747 44.7867 110.422 45.128 109.771 45.128C109.462 45.128 109.222 45.0427 109.051 44.872C108.881 44.6907 108.795 44.4347 108.795 44.104V42.888L109.019 43.368C108.795 43.944 108.454 44.3867 107.995 44.696C107.547 45.0053 107.014 45.16 106.395 45.16ZM113.821 45.128C113.501 45.128 113.256 45.0427 113.085 44.872C112.914 44.6907 112.829 44.4347 112.829 44.104V38.056C112.829 37.7253 112.914 37.4747 113.085 37.304C113.256 37.1333 113.496 37.048 113.805 37.048C114.114 37.048 114.354 37.1333 114.525 37.304C114.696 37.4747 114.781 37.7253 114.781 38.056V39.144L114.605 38.744C114.84 38.1787 115.202 37.752 115.693 37.464C116.194 37.1653 116.76 37.016 117.389 37.016C118.018 37.016 118.536 37.1333 118.941 37.368C119.346 37.6027 119.65 37.96 119.853 38.44C120.056 38.9093 120.157 39.5067 120.157 40.232V44.104C120.157 44.4347 120.072 44.6907 119.901 44.872C119.73 45.0427 119.485 45.128 119.165 45.128C118.845 45.128 118.594 45.0427 118.413 44.872C118.242 44.6907 118.157 44.4347 118.157 44.104V40.328C118.157 39.72 118.04 39.2773 117.805 39C117.581 38.7227 117.229 38.584 116.749 38.584C116.162 38.584 115.693 38.7707 115.341 39.144C115 39.5067 114.829 39.992 114.829 40.6V44.104C114.829 44.7867 114.493 45.128 113.821 45.128ZM125.196 45.16C124.514 45.16 123.911 44.9947 123.388 44.664C122.876 44.3333 122.476 43.864 122.188 43.256C121.9 42.6373 121.756 41.912 121.756 41.08C121.756 40.2373 121.9 39.5173 122.188 38.92C122.476 38.312 122.876 37.8427 123.388 37.512C123.911 37.1813 124.514 37.016 125.196 37.016C125.847 37.016 126.412 37.176 126.892 37.496C127.383 37.816 127.714 38.2373 127.884 38.76H127.708V34.6C127.708 34.2693 127.794 34.0187 127.964 33.848C128.135 33.6773 128.38 33.592 128.7 33.592C129.02 33.592 129.266 33.6773 129.436 33.848C129.618 34.0187 129.708 34.2693 129.708 34.6V44.104C129.708 44.4347 129.623 44.6907 129.452 44.872C129.282 45.0427 129.036 45.128 128.716 45.128C128.396 45.128 128.151 45.0427 127.98 44.872C127.81 44.6907 127.724 44.4347 127.724 44.104V42.856L127.9 43.336C127.74 43.8907 127.415 44.3333 126.924 44.664C126.434 44.9947 125.858 45.16 125.196 45.16ZM125.756 43.64C126.151 43.64 126.498 43.544 126.796 43.352C127.095 43.16 127.324 42.8773 127.484 42.504C127.655 42.12 127.74 41.6453 127.74 41.08C127.74 40.2267 127.559 39.592 127.196 39.176C126.834 38.7493 126.354 38.536 125.756 38.536C125.362 38.536 125.015 38.632 124.716 38.824C124.418 39.0053 124.183 39.288 124.012 39.672C123.852 40.0453 123.772 40.5147 123.772 41.08C123.772 41.9227 123.954 42.5627 124.316 43C124.679 43.4267 125.159 43.64 125.756 43.64ZM134.79 45.16C134.108 45.16 133.505 44.9947 132.982 44.664C132.47 44.3333 132.07 43.864 131.782 43.256C131.494 42.6373 131.35 41.912 131.35 41.08C131.35 40.2373 131.494 39.5173 131.782 38.92C132.07 38.312 132.47 37.8427 132.982 37.512C133.505 37.1813 134.108 37.016 134.79 37.016C135.441 37.016 136.006 37.176 136.486 37.496C136.977 37.816 137.308 38.2373 137.478 38.76H137.302V34.6C137.302 34.2693 137.388 34.0187 137.558 33.848C137.729 33.6773 137.974 33.592 138.294 33.592C138.614 33.592 138.86 33.6773 139.03 33.848C139.212 34.0187 139.302 34.2693 139.302 34.6V44.104C139.302 44.4347 139.217 44.6907 139.046 44.872C138.876 45.0427 138.63 45.128 138.31 45.128C137.99 45.128 137.745 45.0427 137.574 44.872C137.404 44.6907 137.318 44.4347 137.318 44.104V42.856L137.494 43.336C137.334 43.8907 137.009 44.3333 136.518 44.664C136.028 44.9947 135.452 45.16 134.79 45.16ZM135.35 43.64C135.745 43.64 136.092 43.544 136.39 43.352C136.689 43.16 136.918 42.8773 137.078 42.504C137.249 42.12 137.334 41.6453 137.334 41.08C137.334 40.2267 137.153 39.592 136.79 39.176C136.428 38.7493 135.948 38.536 135.35 38.536C134.956 38.536 134.609 38.632 134.31 38.824C134.012 39.0053 133.777 39.288 133.606 39.672C133.446 40.0453 133.366 40.5147 133.366 41.08C133.366 41.9227 133.548 42.5627 133.91 43C134.273 43.4267 134.753 43.64 135.35 43.64ZM143.952 45.16C143.387 45.16 142.88 45.0533 142.432 44.84C141.995 44.616 141.648 44.3173 141.392 43.944C141.147 43.5707 141.024 43.1493 141.024 42.68C141.024 42.104 141.173 41.6507 141.472 41.32C141.771 40.9787 142.256 40.7333 142.928 40.584C143.6 40.4347 144.501 40.36 145.632 40.36H146.432V41.512H145.648C144.987 41.512 144.459 41.544 144.064 41.608C143.669 41.672 143.387 41.784 143.216 41.944C143.056 42.0933 142.976 42.3067 142.976 42.584C142.976 42.936 143.099 43.224 143.344 43.448C143.589 43.672 143.931 43.784 144.368 43.784C144.72 43.784 145.029 43.704 145.296 43.544C145.573 43.3733 145.792 43.144 145.952 42.856C146.112 42.568 146.192 42.2373 146.192 41.864V40.024C146.192 39.4907 146.075 39.1067 145.84 38.872C145.605 38.6373 145.211 38.52 144.656 38.52C144.347 38.52 144.011 38.5573 143.648 38.632C143.296 38.7067 142.923 38.8347 142.528 39.016C142.325 39.112 142.144 39.1387 141.984 39.096C141.835 39.0533 141.717 38.968 141.632 38.84C141.547 38.7013 141.504 38.552 141.504 38.392C141.504 38.232 141.547 38.0773 141.632 37.928C141.717 37.768 141.861 37.6507 142.064 37.576C142.555 37.3733 143.024 37.2293 143.472 37.144C143.931 37.0587 144.347 37.016 144.72 37.016C145.488 37.016 146.117 37.1333 146.608 37.368C147.109 37.6027 147.483 37.96 147.728 38.44C147.973 38.9093 148.096 39.5173 148.096 40.264V44.104C148.096 44.4347 148.016 44.6907 147.856 44.872C147.696 45.0427 147.467 45.128 147.168 45.128C146.869 45.128 146.635 45.0427 146.464 44.872C146.304 44.6907 146.224 44.4347 146.224 44.104V43.336H146.352C146.277 43.7093 146.128 44.0347 145.904 44.312C145.691 44.5787 145.419 44.7867 145.088 44.936C144.757 45.0853 144.379 45.16 143.952 45.16ZM153.774 48.04C153.198 48.04 152.638 47.9867 152.094 47.88C151.561 47.7733 151.075 47.608 150.638 47.384C150.435 47.2773 150.297 47.1493 150.222 47C150.158 46.8507 150.137 46.696 150.158 46.536C150.19 46.3867 150.254 46.2533 150.35 46.136C150.457 46.0187 150.585 45.9387 150.734 45.896C150.883 45.8533 151.038 45.8747 151.198 45.96C151.667 46.1947 152.11 46.344 152.526 46.408C152.953 46.4827 153.315 46.52 153.614 46.52C154.329 46.52 154.862 46.344 155.214 45.992C155.577 45.6507 155.758 45.1387 155.758 44.456V43.016H155.902C155.742 43.56 155.406 43.9973 154.894 44.328C154.393 44.648 153.822 44.808 153.182 44.808C152.478 44.808 151.865 44.648 151.342 44.328C150.819 43.9973 150.414 43.5387 150.126 42.952C149.838 42.3653 149.694 41.6827 149.694 40.904C149.694 40.3173 149.774 39.7893 149.934 39.32C150.105 38.84 150.339 38.4293 150.638 38.088C150.947 37.7467 151.315 37.4853 151.742 37.304C152.179 37.112 152.659 37.016 153.182 37.016C153.843 37.016 154.419 37.1813 154.91 37.512C155.411 37.832 155.737 38.2587 155.886 38.792L155.726 39.192V38.056C155.726 37.7253 155.811 37.4747 155.982 37.304C156.163 37.1333 156.409 37.048 156.718 37.048C157.038 37.048 157.283 37.1333 157.454 37.304C157.625 37.4747 157.71 37.7253 157.71 38.056V44.216C157.71 45.4853 157.374 46.44 156.702 47.08C156.03 47.72 155.054 48.04 153.774 48.04ZM153.726 43.288C154.142 43.288 154.499 43.192 154.798 43C155.097 42.808 155.326 42.536 155.486 42.184C155.657 41.8213 155.742 41.3947 155.742 40.904C155.742 40.168 155.561 39.592 155.198 39.176C154.835 38.7493 154.345 38.536 153.726 38.536C153.31 38.536 152.953 38.632 152.654 38.824C152.355 39.016 152.121 39.288 151.95 39.64C151.79 39.992 151.71 40.4133 151.71 40.904C151.71 41.64 151.891 42.2213 152.254 42.648C152.617 43.0747 153.107 43.288 153.726 43.288ZM160.774 45.112C160.454 45.112 160.209 45.016 160.038 44.824C159.868 44.632 159.782 44.3653 159.782 44.024V38.152C159.782 37.8 159.868 37.5333 160.038 37.352C160.209 37.16 160.454 37.064 160.774 37.064C161.094 37.064 161.34 37.16 161.51 37.352C161.692 37.5333 161.782 37.8 161.782 38.152V44.024C161.782 44.3653 161.697 44.632 161.526 44.824C161.356 45.016 161.105 45.112 160.774 45.112ZM160.774 35.576C160.401 35.576 160.108 35.4853 159.894 35.304C159.692 35.112 159.59 34.8507 159.59 34.52C159.59 34.1787 159.692 33.9173 159.894 33.736C160.108 33.5547 160.401 33.464 160.774 33.464C161.158 33.464 161.452 33.5547 161.654 33.736C161.857 33.9173 161.958 34.1787 161.958 34.52C161.958 34.8507 161.857 35.112 161.654 35.304C161.452 35.4853 161.158 35.576 160.774 35.576ZM166.724 45.16C166.266 45.16 165.78 45.112 165.268 45.016C164.756 44.92 164.298 44.7547 163.892 44.52C163.722 44.4133 163.599 44.2907 163.524 44.152C163.46 44.0027 163.434 43.8587 163.444 43.72C163.466 43.5707 163.519 43.4427 163.604 43.336C163.7 43.2293 163.818 43.16 163.956 43.128C164.106 43.096 164.266 43.1227 164.436 43.208C164.863 43.4107 165.263 43.5547 165.636 43.64C166.01 43.7147 166.378 43.752 166.74 43.752C167.252 43.752 167.631 43.6667 167.876 43.496C168.132 43.3147 168.26 43.08 168.26 42.792C168.26 42.5467 168.175 42.36 168.004 42.232C167.844 42.0933 167.599 41.992 167.268 41.928L165.668 41.624C165.007 41.496 164.5 41.256 164.148 40.904C163.807 40.5413 163.636 40.0773 163.636 39.512C163.636 39 163.775 38.5573 164.052 38.184C164.34 37.8107 164.735 37.5227 165.236 37.32C165.738 37.1173 166.314 37.016 166.964 37.016C167.434 37.016 167.871 37.0693 168.276 37.176C168.692 37.272 169.092 37.4267 169.476 37.64C169.636 37.7253 169.743 37.8373 169.796 37.976C169.86 38.1147 169.876 38.2587 169.844 38.408C169.812 38.5467 169.748 38.6747 169.652 38.792C169.556 38.8987 169.434 38.968 169.284 39C169.146 39.0213 168.986 38.9893 168.804 38.904C168.474 38.7333 168.154 38.6107 167.844 38.536C167.546 38.4613 167.258 38.424 166.98 38.424C166.458 38.424 166.068 38.5147 165.812 38.696C165.567 38.8773 165.444 39.1173 165.444 39.416C165.444 39.64 165.519 39.8267 165.668 39.976C165.818 40.1253 166.047 40.2267 166.356 40.28L167.956 40.584C168.65 40.712 169.172 40.9467 169.524 41.288C169.887 41.6293 170.068 42.088 170.068 42.664C170.068 43.4427 169.764 44.056 169.156 44.504C168.548 44.9413 167.738 45.16 166.724 45.16Z" fill="white"/>
<path d="M15.7713 39.7814C1.89648 35.7167 2.66657 13.8201 15.8722 8.35016C29.0779 2.88019 40.4536 10.6763 45.8741 23.7627" stroke="white" stroke-width="3"/>
<path d="M15.7713 39.9358C1.89648 44.0005 2.66657 65.897 15.8722 71.367C29.0779 76.837 40.4536 69.0409 45.8741 55.9544" stroke="white" stroke-width="3"/>
<circle cx="15" cy="40" r="2" transform="rotate(-180 15 40)" fill="white"/>
<path d="M178.358 39.9358C192.233 44.0005 191.463 65.897 178.257 71.367C165.051 76.837 153.676 69.0409 148.255 55.9544" stroke="white" stroke-width="3"/>
<path d="M178.358 39.7814C192.233 35.7167 191.463 13.8201 178.257 8.35016C165.051 2.88019 153.676 10.6763 148.255 23.7627" stroke="white" stroke-width="3"/>
<circle cx="179.129" cy="39.7172" r="2" fill="white"/>
<path d="M44 22.5L150 23" stroke="white" stroke-width="3"/>
<path d="M44 57L150 57.5" stroke="white" stroke-width="3"/>
</svg>
