<svg width="38" height="38" viewBox="0 0 38 38" fill="none" xmlns="http://www.w3.org/2000/svg">
<path d="M4.23209 0.266846C1.9226 0.266846 0.0444336 2.14501 0.0444336 4.4545V33.7681C0.0444336 36.0776 1.9226 37.9557 4.23209 37.9557H18.0955H23.9435H33.5457C35.8552 37.9557 37.7333 36.0776 37.7333 33.7681V4.4545C37.7333 2.14501 35.8552 0.266846 33.5457 0.266846H4.23209ZM4.23209 4.4545H33.5457L33.5498 33.7681H23.9435V25.4664H28.8959L29.632 19.7615H23.9762V16.126C23.9762 14.476 24.436 13.3614 26.8021 13.3614H29.7915V8.27001C28.3363 8.12135 26.8752 8.04908 25.4116 8.05327C21.069 8.05327 18.0955 10.7037 18.0955 15.5698V19.7697H13.1881V25.4746H18.0955V33.7681H4.23209V4.4545Z" fill="white"/>
</svg>
