<svg width="48" height="38" viewBox="0 0 48 38" fill="none" xmlns="http://www.w3.org/2000/svg">
<path d="M47.6443 0.266846C45.807 1.3574 42.1205 2.84366 39.9534 3.27235C39.8898 3.28883 39.838 3.31003 39.7768 3.32652C37.8617 1.43748 35.2376 0.266846 32.3332 0.266846C26.4796 0.266846 21.7332 5.01299 21.7332 10.8662C21.7332 11.1747 21.7073 11.7424 21.7332 12.0439C13.835 12.0439 7.82365 7.90779 3.51298 2.62225C3.04423 3.79996 2.83929 5.66073 2.83929 7.40844C2.83929 10.7084 5.41862 13.9494 9.43485 15.9586C8.6952 16.1494 7.88018 16.286 7.03218 16.286C5.6636 16.286 4.21494 15.9256 2.88876 14.8327C2.88876 14.8727 2.88876 14.9104 2.88876 14.9528C2.88876 19.5647 7.7836 22.7045 12.1367 23.5783C11.2533 24.0989 9.47254 24.1507 8.60334 24.1507C7.99089 24.1507 5.82378 23.8704 5.24431 23.762C6.45507 27.5425 10.8223 29.6671 14.9845 29.7424C11.7292 32.2957 9.47018 33.2426 2.80396 33.2426H0.533203C4.74494 35.9419 10.1085 37.9557 15.4839 37.9557C32.9857 37.9557 42.9332 24.6171 42.9332 12.0439C42.9332 11.8413 42.9285 11.4173 42.9214 10.991C42.9214 10.9486 42.9332 10.9086 42.9332 10.8662C42.9332 10.8026 42.9144 10.7413 42.9144 10.6777C42.9073 10.3574 42.9002 10.0583 42.8932 9.90282C44.754 8.56024 46.3676 6.88554 47.6443 4.97766C45.9365 5.7361 44.1039 6.24487 42.1794 6.4757C44.144 5.298 46.9353 2.49035 47.6443 0.266846ZM38.2221 12.0439C38.2221 21.654 31.2567 31.827 18.28 33.1083C20.0372 31.8623 21.7332 30.0934 21.7332 30.0934C21.7332 30.0934 14.6665 23.8233 14.1365 15.6312C16.5745 16.3755 19.1138 16.7547 21.7332 16.7547H26.4443V10.8662C26.4443 10.8638 26.4443 10.8638 26.4443 10.8638C26.449 7.61336 29.0825 4.98002 32.3332 4.98002C35.5862 4.98002 38.2221 7.61572 38.2221 10.8685C38.2221 10.8685 38.2221 11.8578 38.2221 12.0439Z" fill="white"/>
</svg>
