<svg width="110" height="68" viewBox="0 0 110 68" fill="none" xmlns="http://www.w3.org/2000/svg">
<path fill-rule="evenodd" clip-rule="evenodd" d="M61.3968 0.281733C60.9223 0.431746 60.4573 0.506554 60.3634 0.448172C60.2696 0.38979 59.8168 0.398893 59.3573 0.468358C58.6257 0.579186 58.225 0.881982 56.1333 2.90478C54.8199 4.17533 53.4346 5.70851 53.0552 6.31173C52.2123 7.65214 52.0964 7.74793 50.7991 8.17362C50.2302 8.36045 49.3344 8.81088 48.8088 9.17463C47.6566 9.97199 46.5129 10.3106 45.5018 10.1535C45.038 10.0814 44.4237 10.1553 43.8912 10.347C43.4179 10.5176 42.4774 10.6571 41.8013 10.6571C41.1252 10.6571 40.1847 10.7965 39.7114 10.9669C39.1248 11.1778 38.036 11.2877 36.2934 11.312C34.0493 11.3431 33.5945 11.2922 32.579 10.8964C31.9429 10.6482 31.3746 10.4933 31.3162 10.5519C31.2579 10.6106 30.9819 10.5055 30.7028 10.3185C30.4237 10.1315 29.6016 9.92192 28.8757 9.85285C27.795 9.75014 27.3678 9.59676 26.5136 9.00483C25.9282 8.59932 25.2315 8.28227 24.9252 8.28227C24.6252 8.28227 24.0506 8.138 23.6483 7.96167C23.246 7.78533 22.2499 7.52825 21.4343 7.39051C20.4716 7.22803 19.6846 6.95769 19.1895 6.61967C18.6699 6.26502 18.296 6.14153 18.0163 6.23217C17.4842 6.40494 17.3354 6.3899 16.5978 6.08968C16.0493 5.86624 15.9248 5.88563 15.4401 6.26918C14.7359 6.82648 14.2897 6.83776 14.4613 6.29372C14.6487 5.6998 14.2185 5.31369 13.3697 5.31369C12.779 5.31369 12.5189 5.43995 12.1153 5.92264C11.8352 6.2575 11.606 6.60284 11.606 6.68992C11.606 6.777 11.2163 6.80411 10.7403 6.75009C10.0048 6.66677 9.84111 6.71486 9.65246 7.06931C9.47109 7.4101 8.50956 8.08437 8.20446 8.08437C8.16217 8.08437 8.13503 7.54329 8.14388 6.88209L8.1602 5.67961L6.98151 4.60875C5.6537 3.40211 5.65586 3.40291 3.29611 3.23706C1.64569 3.12109 1.55619 3.13633 1.0831 3.61229C0.299986 4.40015 0.41762 5.21632 1.56111 6.92781C2.71325 8.65216 2.91409 9.28051 2.4591 9.73807C2.05544 10.1442 1.79165 10.1517 1.64274 9.76103C1.35318 9.00206 0 9.01532 0 9.77706C0 10.2487 1.88293 13.8862 2.34304 14.3038C2.57417 14.5133 2.90426 15.1813 3.07697 15.788C3.43715 17.0539 4.97662 19.3203 6.85954 21.3563C7.88894 22.4697 8.14329 22.881 8.28374 23.6605C8.40314 24.3231 8.60989 24.729 8.96869 25.0053C9.25137 25.223 9.71679 25.6544 10.0034 25.964C12.5477 28.7141 13.8019 29.8884 14.5677 30.2379C15.8806 30.8372 17.863 30.7747 20.7531 30.0428C23.5555 29.3331 26.9619 29.0677 28.452 29.443C28.978 29.5754 30.1518 30.1673 31.0606 30.7584C32.6239 31.7753 33.0443 31.9188 34.2385 31.8432C35.0277 31.7933 36.5709 32.3882 37.9654 33.2802C39.5092 34.2675 43.3571 37.1563 44.8503 38.4491C45.4454 38.9642 46.1978 39.5249 46.5224 39.6951C47.0641 39.9789 48.9597 41.4487 52.3789 44.2354C53.1589 44.8711 54.3362 46.1559 55.219 47.3344C57.1812 49.9537 59.4192 52.3628 60.93 53.4818C61.5941 53.9736 62.2312 54.5525 62.3459 54.768C62.6795 55.3951 62.5881 56.7162 62.1382 57.7682C61.8771 58.3786 61.7644 58.946 61.8358 59.2891C61.8986 59.5903 62.006 60.116 62.0744 60.4572C62.2654 61.4085 61.9094 61.8255 60.4164 62.3996C59.6698 62.6866 58.8956 63.1034 58.6955 63.3258C58.1215 63.9637 56.7504 64.8303 56.081 64.9783C55.2066 65.1715 54.7689 66.261 55.2556 67.0338C55.4592 67.3572 58.0397 67.7561 61.0791 67.9341C63.1971 68.0579 63.2592 68.0494 64.0107 67.5327C64.433 67.2424 65.1595 66.9617 65.6251 66.9089C66.5146 66.808 66.7863 66.6079 67.5696 65.4771C67.8334 65.0961 68.1833 64.6021 68.3472 64.3795C68.6161 64.0139 68.6067 63.8693 68.2504 62.8952C68.0332 62.3015 67.7179 61.4372 67.5493 60.9747C67.3345 60.3847 67.1303 60.1336 66.8658 60.1336C66.5398 60.1336 66.4887 60.2812 66.4887 61.2221C66.4887 62.6644 66.0868 62.6717 64.8679 61.2516L63.9591 60.1924L64.3221 59.6188C65.2917 58.0859 65.7236 57.8177 69.2426 56.564C70.6946 56.0464 70.8163 55.977 70.8163 55.6641C70.8163 55.165 71.8048 52.0068 72.2187 51.1839C72.4266 50.7703 73.0848 50.0812 73.719 49.6129C74.3404 49.154 75.203 48.4536 75.6358 48.0564C76.4557 47.3042 78.8223 45.5574 79.6701 45.0791C80.0333 44.8743 80.8087 44.8157 82.6662 44.8531C85.0299 44.9006 85.2314 44.8739 86.2071 44.3835C86.7762 44.0977 87.5073 43.61 87.8319 43.2999C88.3636 42.7919 88.5765 42.7306 89.9837 42.6775L91.5456 42.6189L91.7107 41.9757C91.8016 41.6219 91.9617 41.3325 92.0669 41.3325C92.3185 41.3325 92.314 40.5991 92.0612 40.442C91.7433 40.2443 91.8356 39.5807 92.2088 39.3816C92.6034 39.171 96.9479 39.2258 97.9252 39.4538C98.3204 39.5459 98.7457 39.5189 99.0071 39.3853C99.244 39.264 99.827 39.1405 100.302 39.1109C101.151 39.0576 101.171 39.0406 101.393 38.1564C101.518 37.661 101.814 36.939 102.052 36.5517C102.58 35.6922 104.819 34.0057 106.035 33.5515C106.609 33.3368 107.051 33.0065 107.276 32.6235C107.468 32.2966 107.887 31.8926 108.207 31.726C108.527 31.5594 109.053 31.0567 109.376 30.6088C110.213 29.4459 110.208 27.8393 109.361 26.135C108.684 24.7718 108.014 24.2509 106.513 23.921C103.972 23.3625 103.07 22.8204 102.805 21.694C102.735 21.3967 102.42 20.8584 102.106 20.4978C101.791 20.137 101.249 19.2423 100.901 18.5093C100.208 17.0509 99.6047 16.4405 98.0918 15.6693C97.5448 15.3905 96.7815 14.9521 96.396 14.6954C96.0102 14.4387 95.2782 14.1025 94.769 13.9483C93.7219 13.6313 92.193 12.5701 91.2864 11.5311C90.9508 11.1468 90.3138 10.6688 89.871 10.4693C89.428 10.2698 88.5637 9.56253 87.9501 8.89756L86.8348 7.68856L85.3661 7.68717C84.2319 7.68618 83.7633 7.59653 83.3075 7.29294C82.983 7.07663 82.2117 6.79917 81.5934 6.67607C80.8276 6.52368 80.2323 6.24879 79.7246 5.8132C78.6392 4.88166 77.9751 4.59311 76.3278 4.33702C75.4528 4.20106 74.2964 3.83731 73.4755 3.43952C71.3417 2.40586 69.0038 1.67618 66.2499 1.18438C65.6316 1.07395 64.7922 0.75552 64.3846 0.476868C63.5515 -0.0925067 62.7482 -0.144952 61.3968 0.281733ZM64.1216 0.65815C64.9146 1.24672 65.6275 1.47946 67.113 1.63462C67.727 1.69874 68.8925 2.01855 69.7031 2.3451C70.5136 2.67164 71.3451 2.93882 71.5504 2.93882C71.756 2.93882 72.6206 3.29505 73.4719 3.73044C74.3233 4.16583 75.2648 4.52206 75.564 4.52206C76.6917 4.52206 78.1029 4.96795 78.8982 5.57532C80.3582 6.69032 80.6645 6.84765 81.6284 6.97629C82.1495 7.04576 82.8246 7.29947 83.1285 7.53993C83.5768 7.89497 83.9055 7.97018 84.8714 7.9399C86.4347 7.89082 86.944 8.11781 87.9415 9.30782C88.4279 9.88848 89.121 10.4495 89.6137 10.6621C90.0766 10.8616 90.6591 11.3023 90.9083 11.6415C91.4998 12.4464 93.6802 13.9226 94.8604 14.3172C95.3723 14.4884 96.0804 14.8114 96.4341 15.035C96.788 15.2587 97.697 15.8124 98.4544 16.2654C99.7291 17.0279 99.8825 17.1948 100.52 18.511C100.899 19.293 101.451 20.1877 101.748 20.499C102.044 20.8103 102.424 21.4697 102.591 21.9641C102.969 23.0801 103.68 23.52 106.087 24.1274C107.617 24.5135 107.887 24.6515 108.483 25.3513C109.227 26.226 109.765 27.5939 109.765 28.6108C109.765 29.5771 109.086 30.7664 108.195 31.3599C107.768 31.6441 107.202 32.162 106.938 32.5107C106.66 32.8766 106.137 33.2443 105.701 33.3799C105.286 33.5089 104.326 34.0838 103.569 34.6572C102.106 35.7647 101.123 37.1898 101.114 38.2155C101.112 38.5148 101.044 38.7679 100.962 38.7778C100.881 38.7877 100.461 38.8166 100.028 38.8421C99.5953 38.8676 99.0518 38.9911 98.82 39.1164C98.4902 39.2949 98.1986 39.2755 97.4726 39.0265C96.7123 38.7661 96.4084 38.7505 95.7791 38.9403C95.1901 39.1178 94.8292 39.1164 94.225 38.9343C92.6451 38.458 91.0753 39.4091 91.7449 40.437C92.0093 40.8431 92.0111 40.9302 91.7589 41.1408C91.6005 41.273 91.4711 41.5374 91.4711 41.7284C91.4711 42.3395 90.9531 42.5774 89.8545 42.4711C88.6565 42.3553 87.8093 42.6015 87.5174 43.1501C87.4031 43.365 86.7632 43.8042 86.0953 44.1262C84.9145 44.6954 84.8246 44.7078 82.8136 44.5828C81.6359 44.5095 80.4509 44.5372 80.0596 44.6471C79.3222 44.8543 76.6555 46.6974 74.8955 48.2163C74.3009 48.7297 73.493 49.3992 73.1005 49.7038C72.0593 50.512 71.5274 51.6802 70.6269 55.1365C70.5022 55.6154 70.2903 55.9776 70.1351 55.9776C69.8794 55.9776 67.7045 56.7882 66.0449 57.502C65.2744 57.8335 64.0886 59.1199 63.8484 59.8846C63.6422 60.5415 65.3546 62.5085 66.1328 62.5085C66.674 62.5085 66.6854 62.4851 66.6854 61.3776C66.6854 60.3917 66.7216 60.2838 66.9682 60.5365C67.1238 60.6958 67.4813 61.5201 67.7626 62.3681L68.2742 63.9102L67.6766 64.6397C67.3477 65.0411 67.0788 65.4761 67.0788 65.6067C67.0788 66.0211 66.0659 66.6645 65.414 66.6645C65.0458 66.6645 64.4189 66.9089 63.8997 67.2548L63.0139 67.8452L60.7679 67.6542C56.1353 67.2602 55.8945 67.222 55.5351 66.8222C55.2257 66.4785 55.22 66.3874 55.4793 65.9255C55.638 65.6429 56.0334 65.315 56.358 65.197C57.1116 64.9229 58.4148 64.0656 58.8889 63.5322C59.0909 63.305 59.8211 62.93 60.512 62.6987C62.2735 62.1089 62.6774 61.3513 62.1732 59.5824C62.0288 59.0764 62.0709 58.7522 62.3656 58.0995C62.806 57.1231 62.8912 54.845 62.5052 54.3569C62.3701 54.1859 61.7282 53.6567 61.0791 53.1812C59.5502 52.061 57.491 49.8605 55.6014 47.3279C54.7727 46.2171 53.4886 44.7921 52.7479 44.1614C50.4545 42.2085 47.8419 40.1665 46.6786 39.4178C46.0664 39.0238 45.2054 38.3735 44.7654 37.9725C43.8367 37.1267 40.5628 34.64 38.8506 33.48C36.841 32.1186 36.0648 31.8054 34.2991 31.6435C32.7636 31.5026 32.5686 31.4305 31.1903 30.4938C29.1173 29.0847 28.7538 28.9967 25.497 29.1146C23.2844 29.1948 22.3006 29.3294 20.6548 29.777C18.1335 30.463 15.6441 30.5457 14.5862 29.9787C13.9001 29.611 10.6224 26.3802 10.6224 26.0716C10.6224 25.9747 10.1915 25.5836 9.66446 25.2028C8.80857 24.5842 8.69565 24.4146 8.60556 23.6103C8.5192 22.8386 8.32623 22.5194 7.25218 21.371C5.39915 19.3897 3.92185 17.2531 3.4161 15.8227C3.16982 15.1263 2.75574 14.3247 2.49608 14.0415C1.91106 13.4037 0.239792 10.0326 0.347393 9.70779C0.472502 9.32999 1.06165 9.43112 1.33902 9.87779C1.70333 10.4646 2.59148 10.3262 2.82774 9.64584C3.08366 8.90944 2.88242 8.31908 1.86739 6.82767C0.792749 5.24877 0.614332 4.57411 1.11496 3.98158C1.53593 3.48326 1.56268 3.47851 3.7035 3.50918C5.241 3.53115 5.37712 3.56836 5.9226 4.11715C6.24207 4.43855 6.76512 4.88918 7.08498 5.11816C7.74081 5.58798 8.08703 6.57078 7.83819 7.25613C7.74672 7.50807 7.67177 7.84213 7.67177 7.99828C7.67177 8.64523 9.57417 8.08338 9.84937 7.35528C10.0156 6.91554 10.1069 6.88387 10.8782 7.00024C11.6507 7.11681 11.7443 7.08415 11.9514 6.62719C12.2451 5.97845 13.0351 5.4637 13.6109 5.54583C13.9699 5.59709 14.0649 5.73483 14.0649 6.20426C14.0649 6.71011 14.1479 6.80748 14.6263 6.8625C14.9965 6.90524 15.3416 6.78195 15.639 6.50073C16.071 6.09245 16.1168 6.08809 16.7148 6.3992C17.108 6.60383 17.5471 6.67825 17.9006 6.60007C18.3162 6.50825 18.6597 6.60779 19.2245 6.98401C19.7418 7.32837 20.4317 7.54784 21.3688 7.66619C22.1287 7.76218 23.0092 7.97235 23.3253 8.13325C23.6416 8.29415 24.2546 8.47206 24.6874 8.52867C25.1309 8.58685 25.9335 8.94407 26.5266 9.3476C27.3992 9.94092 27.7529 10.0634 28.595 10.0634C29.2351 10.0634 29.8825 10.2099 30.345 10.4592C30.7488 10.6769 31.2343 10.855 31.424 10.8552C31.6138 10.8552 32.2403 11.0355 32.8165 11.2558C33.6755 11.5843 34.2912 11.652 36.2406 11.6326C37.7683 11.6174 38.9403 11.5024 39.521 11.3106C40.3869 11.0247 41.5035 10.8786 45.663 10.5075C47.4086 10.352 47.6558 10.2752 48.8103 9.53047C49.4994 9.08597 50.5152 8.57577 51.0676 8.39686C52.1645 8.04162 52.579 7.66916 53.4337 6.27195C53.7437 5.76471 55.0796 4.31763 56.4023 3.05598L58.8071 0.761853L60.0414 0.746812C60.7203 0.7385 61.5856 0.611642 61.9643 0.464994C62.9722 0.0745259 63.3851 0.111534 64.1216 0.65815ZM86.4166 52.3161C85.8599 52.7084 85.1763 53.8394 85.1763 54.3682C85.1763 54.8691 85.7859 54.9467 86.1599 54.4933C86.2946 54.33 86.6089 54.1964 86.8584 54.1964C87.3657 54.1964 87.9944 53.6694 87.8221 53.3888C87.7607 53.2888 87.5829 53.2069 87.4269 53.2069C87.0514 53.2069 87.0681 53.0092 87.4686 52.7145C88.2131 52.1667 87.1824 51.7764 86.4166 52.3161ZM87.3401 52.344C87.3401 52.4137 87.1938 52.5781 87.015 52.7098C86.6575 52.9728 86.8057 53.4048 87.2534 53.4048C87.4094 53.4048 87.5368 53.4939 87.5368 53.6027C87.5368 53.7116 87.3818 53.8012 87.1926 53.8018C87.0034 53.8026 86.5948 53.9362 86.285 54.0987C85.4542 54.5344 85.3266 54.465 85.683 53.7715C86.1931 52.779 87.3401 51.7911 87.3401 52.344ZM94.8152 53.0191C94.3283 53.1062 93.1313 53.1841 92.1552 53.1922C90.482 53.2061 90.3394 53.2409 89.6615 53.803C89.2661 54.1309 88.8426 54.7042 88.7203 55.0773C88.5639 55.5541 88.2385 55.9083 87.624 56.2707C87.1129 56.5719 86.75 56.9311 86.75 57.1355C86.75 57.3279 86.62 57.658 86.4612 57.8694C85.841 58.6942 86.2108 59.5399 87.1918 59.5399C88.0573 59.5399 89.4914 60.4039 89.8649 61.1506C90.1181 61.6563 90.3935 61.8617 91.0777 62.0553C91.5645 62.1928 92.1405 62.5091 92.3577 62.7578C92.9744 63.4646 93.677 63.8936 94.2197 63.895C95.0589 63.8968 96.0574 64.2536 97.2568 64.9801C97.8876 65.3623 98.653 65.675 98.9575 65.675C99.447 65.675 99.5864 65.5192 100.154 64.3391C100.507 63.6045 101.051 62.7016 101.364 62.3327C101.74 61.8888 101.899 61.5211 101.832 61.2442C101.565 60.1273 101.102 59.1862 100.546 58.6297C100.209 58.2925 99.7973 57.6289 99.6313 57.1553C99.4651 56.6815 99.2021 56.1527 99.0469 55.9801C98.8914 55.8076 98.6216 55.3223 98.4471 54.9022C98.2726 54.4818 97.8929 53.8394 97.6036 53.4747C97.0339 52.7563 96.6417 52.6921 94.8152 53.0191ZM97.3006 53.5473C97.7226 54.1665 98.4923 55.5964 99.2453 57.1601C99.5323 57.756 100.069 58.58 100.439 58.9913C100.808 59.4025 101.11 59.8767 101.11 60.0451C101.11 60.2134 101.242 60.6082 101.404 60.9224C101.687 61.4728 101.673 61.5193 101.044 62.1908C100.684 62.5744 100.288 63.2257 100.163 63.6383C100.038 64.0509 99.7182 64.6557 99.4521 64.9823L98.9686 65.576L98.1213 65.1002C96.2809 64.067 95.818 63.8762 94.7103 63.6949C93.7803 63.5425 93.4071 63.3603 92.7615 62.743C92.3091 62.3104 91.594 61.8742 91.1123 61.7368C90.4539 61.549 90.217 61.3652 90.0636 60.9222C89.8376 60.2698 88.4295 59.342 87.6655 59.342C86.5069 59.342 86.3214 58.9594 86.8556 57.673C87.0348 57.2414 87.4385 56.7785 87.8476 56.5359C88.2269 56.3107 88.7053 55.7949 88.9107 55.39C89.116 54.9851 89.6021 54.3728 89.991 54.0292C90.6701 53.4295 90.7696 53.404 92.5107 53.3852C93.5076 53.3745 94.8103 53.2979 95.4053 53.2152C96.0004 53.1325 96.5878 53.0521 96.7105 53.0369C96.8333 53.0215 97.0988 53.2512 97.3006 53.5473ZM86.4549 54.9568C85.6071 55.4783 85.2609 55.9439 85.5243 56.2089C85.8221 56.5086 86.5851 56.2756 87.2079 55.695C88.2124 54.7583 87.6592 54.216 86.4549 54.9568ZM87.2378 55.2241C87.1068 55.5673 85.7664 56.2574 85.7664 55.9815C85.7664 55.785 87.1715 54.7525 87.2845 54.8659C87.3201 54.902 87.2992 55.0631 87.2378 55.2241Z" fill="black"/>
</svg>
